<svg xmlns="http://www.w3.org/2000/svg" style="display:none">
  <!-- House -->
  <symbol id="icon-house" viewBox="0 0 24 24" fill="none" stroke="currentColor" stroke-width="2" stroke-linecap="round" stroke-linejoin="round">
    <path d="M15 21v-8a1 1 0 0 0-1-1h-4a1 1 0 0 0-1 1v8"/><path d="M3 10a2 2 0 0 1 .709-1.528l7-6a2 2 0 0 1 2.582 0l7 6A2 2 0 0 1 21 10v9a2 2 0 0 1-2 2H5a2 2 0 0 1-2-2z"/>
  </symbol>
  <!-- List / Tasks -->
  <symbol id="icon-list" viewBox="0 0 24 24" fill="none" stroke="currentColor" stroke-width="2" stroke-linecap="round" stroke-linejoin="round">
    <line x1="8" y1="6" x2="21" y2="6"/><line x1="8" y1="12" x2="21" y2="12"/><line x1="8" y1="18" x2="21" y2="18"/><line x1="3" y1="6" x2="3.01" y2="6"/><line x1="3" y1="12" x2="3.01" y2="12"/><line x1="3" y1="18" x2="3.01" y2="18"/>
  </symbol>
  <!-- Brain / Intel -->
  <symbol id="icon-brain" viewBox="0 0 24 24" fill="none" stroke="currentColor" stroke-width="2" stroke-linecap="round" stroke-linejoin="round">
    <path d="M9.5 2A2.5 2.5 0 0 1 12 4.5v15a2.5 2.5 0 0 1-4.96.44 2.5 2.5 0 0 1-2.96-3.08 3 3 0 0 1-.34-5.58 2.5 2.5 0 0 1 1.32-4.24 2.5 2.5 0 0 1 4.44-2.04Z"/><path d="M14.5 2A2.5 2.5 0 0 0 12 4.5v15a2.5 2.5 0 0 0 4.96.44 2.5 2.5 0 0 0 2.96-3.08 3 3 0 0 0 .34-5.58 2.5 2.5 0 0 0-1.32-4.24 2.5 2.5 0 0 0-4.44-2.04Z"/>
  </symbol>
  <!-- User / Profile -->
  <symbol id="icon-user" viewBox="0 0 24 24" fill="none" stroke="currentColor" stroke-width="2" stroke-linecap="round" stroke-linejoin="round">
    <path d="M20 21v-2a4 4 0 0 0-4-4H8a4 4 0 0 0-4 4v2"/><circle cx="12" cy="7" r="4"/>
  </symbol>
  <!-- CPU Chip -->
  <symbol id="icon-cpu" viewBox="0 0 24 24" fill="none" stroke="currentColor" stroke-width="2" stroke-linecap="round" stroke-linejoin="round">
    <rect x="4" y="4" width="16" height="16" rx="2"/><rect x="9" y="9" width="6" height="6"/><path d="M9 1v3"/><path d="M15 1v3"/><path d="M9 20v3"/><path d="M15 20v3"/><path d="M20 9h3"/><path d="M20 14h3"/><path d="M1 9h3"/><path d="M1 14h3"/>
  </symbol>
  <!-- Check / Done -->
  <symbol id="icon-check" viewBox="0 0 24 24" fill="none" stroke="currentColor" stroke-width="2.5" stroke-linecap="round" stroke-linejoin="round">
    <polyline points="20 6 9 17 4 12"/>
  </symbol>
  <!-- X / Close -->
  <symbol id="icon-x" viewBox="0 0 24 24" fill="none" stroke="currentColor" stroke-width="2" stroke-linecap="round" stroke-linejoin="round">
    <line x1="18" y1="6" x2="6" y2="18"/><line x1="6" y1="6" x2="18" y2="18"/>
  </symbol>
  <!-- Alert Triangle -->
  <symbol id="icon-alert" viewBox="0 0 24 24" fill="none" stroke="currentColor" stroke-width="2" stroke-linecap="round" stroke-linejoin="round">
    <path d="M10.29 3.86L1.82 18a2 2 0 0 0 1.71 3h16.94a2 2 0 0 0 1.71-3L13.71 3.86a2 2 0 0 0-3.42 0z"/><line x1="12" y1="9" x2="12" y2="13"/><line x1="12" y1="17" x2="12.01" y2="17"/>
  </symbol>
  <!-- Zap / Urgent -->
  <symbol id="icon-zap" viewBox="0 0 24 24" fill="none" stroke="currentColor" stroke-width="2" stroke-linecap="round" stroke-linejoin="round">
    <polygon points="13 2 3 14 12 14 11 22 21 10 12 10 13 2"/>
  </symbol>
  <!-- Calendar -->
  <symbol id="icon-calendar" viewBox="0 0 24 24" fill="none" stroke="currentColor" stroke-width="2" stroke-linecap="round" stroke-linejoin="round">
    <rect x="3" y="4" width="18" height="18" rx="2" ry="2"/><line x1="16" y1="2" x2="16" y2="6"/><line x1="8" y1="2" x2="8" y2="6"/><line x1="3" y1="10" x2="21" y2="10"/>
  </symbol>
  <!-- Server / System -->
  <symbol id="icon-server" viewBox="0 0 24 24" fill="none" stroke="currentColor" stroke-width="2" stroke-linecap="round" stroke-linejoin="round">
    <rect x="2" y="2" width="20" height="8" rx="2" ry="2"/><rect x="2" y="14" width="20" height="8" rx="2" ry="2"/><line x1="6" y1="6" x2="6.01" y2="6"/><line x1="6" y1="18" x2="6.01" y2="18"/>
  </symbol>
  <!-- Clock -->
  <symbol id="icon-clock" viewBox="0 0 24 24" fill="none" stroke="currentColor" stroke-width="2" stroke-linecap="round" stroke-linejoin="round">
    <circle cx="12" cy="12" r="10"/><polyline points="12 6 12 12 16 14"/>
  </symbol>
  <!-- Send / Chat -->
  <symbol id="icon-send" viewBox="0 0 24 24" fill="none" stroke="currentColor" stroke-width="2" stroke-linecap="round" stroke-linejoin="round">
    <line x1="22" y1="2" x2="11" y2="13"/><polygon points="22 2 15 22 11 13 2 9 22 2"/>
  </symbol>
  <!-- Sparkles / AI -->
  <symbol id="icon-sparkles" viewBox="0 0 24 24" fill="none" stroke="currentColor" stroke-width="2" stroke-linecap="round" stroke-linejoin="round">
    <path d="m12 3-1.912 5.813a2 2 0 0 1-1.275 1.275L3 12l5.813 1.912a2 2 0 0 1 1.275 1.275L12 21l1.912-5.813a2 2 0 0 1 1.275-1.275L21 12l-5.813-1.912a2 2 0 0 1-1.275-1.275L12 3Z"/><path d="M5 3v4"/><path d="M19 17v4"/><path d="M3 5h4"/><path d="M17 19h4"/>
  </symbol>
  <!-- Bell -->
  <symbol id="icon-bell" viewBox="0 0 24 24" fill="none" stroke="currentColor" stroke-width="2" stroke-linecap="round" stroke-linejoin="round">
    <path d="M6 8a6 6 0 0 1 12 0c0 7 3 9 3 9H3s3-2 3-9"/><path d="M10.3 21a1.94 1.94 0 0 0 3.4 0"/>
  </symbol>
  <!-- Arrow Right -->
  <symbol id="icon-chevron-right" viewBox="0 0 24 24" fill="none" stroke="currentColor" stroke-width="2" stroke-linecap="round" stroke-linejoin="round">
    <polyline points="9 18 15 12 9 6"/>
  </symbol>
  <!-- Refresh -->
  <symbol id="icon-refresh" viewBox="0 0 24 24" fill="none" stroke="currentColor" stroke-width="2" stroke-linecap="round" stroke-linejoin="round">
    <polyline points="23 4 23 10 17 10"/><path d="M20.49 15a9 9 0 1 1-2.12-9.36L23 10"/>
  </symbol>
</svg>
